<svg width="67" height="67" viewBox="0 0 67 67" fill="none" xmlns="http://www.w3.org/2000/svg">
<rect x="1.90024" y="2.1727" width="62.7078" height="62.7078" rx="31.3539" fill="#2D77AF"/>
<rect x="1.90024" y="2.1727" width="62.7078" height="62.7078" rx="31.3539" stroke="white" stroke-width="3.80048"/>
<path d="M33.6105 20.2928C32.4584 20.3284 31.5677 21.2904 31.6033 22.4306C31.6152 22.7156 31.6746 22.9888 31.7934 23.2619L32.1378 24.022C32.1853 24.1764 32.1021 24.3427 31.9359 24.3902C31.829 24.4496 31.7102 24.3902 31.6271 24.2952L31.1283 23.642C30.7364 23.1432 30.1425 22.8344 29.5131 22.8225C28.3611 22.7987 27.4109 23.7132 27.3872 24.8534C27.3753 25.3522 27.5416 25.8272 27.8504 26.231L28.3492 26.8249H28.3611C28.4561 26.9793 28.4204 27.1693 28.2898 27.2643C28.1829 27.3474 28.0404 27.3474 27.9454 27.2643L27.3159 26.7655C26.9121 26.4567 26.4252 26.2904 25.9383 26.3023C24.7981 26.3261 23.8836 27.2762 23.9074 28.4282C23.9193 29.0577 24.228 29.6515 24.7269 30.0434L25.4038 30.566C25.5345 30.6847 25.5345 30.8748 25.3919 30.9816C25.3529 31.0221 25.3022 31.0496 25.2469 31.0602C25.1917 31.0708 25.1345 31.0641 25.0831 31.041H25.0713L24.3468 30.7085C24.0736 30.6016 23.8005 30.5303 23.5155 30.5185C22.3753 30.4828 21.4133 31.3854 21.3777 32.5375C21.3777 33.3926 21.8527 34.1764 22.6366 34.509L36.1639 40.5303L41.6152 35.079L35.5938 21.5517C35.2613 20.756 34.4418 20.2572 33.6105 20.2928ZM34.5962 25.1622C35.095 25.1503 35.5463 25.4353 35.7364 25.8866L39.3587 34.0101L34.6675 29.3308L33.563 26.8249C33.2067 26.0767 33.753 25.1859 34.5962 25.1622ZM30.7007 28.4282C31.0214 28.4282 31.3183 28.547 31.544 28.7845L37.2565 34.4971C37.7316 34.9484 37.7435 35.6966 37.2922 36.1717C36.8171 36.6467 36.0808 36.6586 35.582 36.1717L29.8694 30.4591C29.7564 30.3515 29.6661 30.2225 29.6036 30.0796C29.5411 29.9367 29.5078 29.7827 29.5056 29.6268C29.5034 29.4708 29.5323 29.316 29.5907 29.1714C29.6491 29.0267 29.7358 28.8952 29.8456 28.7845C30.0713 28.547 30.3801 28.4282 30.7007 28.4282ZM27.4703 32.3712C27.6247 32.3712 27.791 32.4187 27.9098 32.4781L30.4394 33.5945L35.1188 38.2738L26.9715 34.6515C25.7601 34.1289 26.1639 32.3356 27.4703 32.3712ZM43.0879 36.9674L38.0523 42.003L39.0618 43.0125C39.9644 43.9033 41.2708 44.2477 42.4941 43.927C43.0966 43.7629 43.6459 43.4442 44.0875 43.0026C44.5291 42.561 44.8477 42.0118 45.0119 41.4092C45.3326 40.1859 44.9881 38.8795 44.0974 37.9769L43.0879 36.9674Z" fill="white"/>
</svg>
