<svg width="68" height="67" viewBox="0 0 68 67" fill="none" xmlns="http://www.w3.org/2000/svg">
<rect x="2.76962" y="2.1727" width="62.7078" height="62.7078" rx="31.3539" fill="#2D77AF"/>
<rect x="2.76962" y="2.1727" width="62.7078" height="62.7078" rx="31.3539" stroke="white" stroke-width="3.80048"/>
<path d="M22.6509 35.293C23.3635 35.0317 24.0998 34.9011 24.8836 34.9011C26.4751 34.9011 27.8646 35.3999 29.0523 36.3975L25.3231 40.1267C24.0855 38.7332 23.1728 37.0822 22.6509 35.293ZM38.3516 29.5567C40.6912 31.3025 43.2209 31.7301 45.9288 30.8393C45.9644 31.0887 46 31.54 46 32.1695C46 33.3928 45.7031 34.7586 45.1449 36.2669C44.5867 37.7633 43.8979 38.9747 43.0903 39.8892L35.5725 32.3951L38.3516 29.5567ZM30.2874 37.6802C31.5464 39.4973 31.8076 41.4806 31.0594 43.6422C29.373 43.1552 27.8646 42.3951 26.6057 41.35L30.2874 37.6802ZM34.3492 33.6184L41.8433 41.1362C39.2661 43.3928 36.2376 44.3429 32.7934 43.9747C33.0428 43.1909 33.1734 42.3358 33.1734 41.4094C33.1734 40.673 33.0072 39.8061 32.6746 38.8203C32.3421 37.8346 31.9502 37.027 31.5107 36.3975L34.3492 33.6184ZM30.335 35.1386C29.2525 34.171 27.9259 33.5179 26.4989 33.2502C25.0499 32.9771 23.6604 33.0602 22.3183 33.5115C22.2827 33.2502 22.2471 32.7989 22.2471 32.1695C22.2471 30.9462 22.544 29.5804 23.1022 28.0721C23.6604 26.5757 24.3492 25.3643 25.1568 24.4498L33.0665 32.3951L30.335 35.1386ZM38.3516 27.0982C36.7601 25.1386 36.392 23.0008 37.2471 20.6968C37.9834 20.8868 38.8266 21.2431 39.7768 21.7894C40.715 22.3239 41.487 22.8583 42.0808 23.369L38.3516 27.0982ZM45.5962 29.0578C44.8836 29.3073 44.1473 29.4379 43.3635 29.4379C42.0689 29.4379 40.8219 29.0578 39.6342 28.274L43.3041 24.6517C44.3492 25.9581 45.1093 27.4189 45.5962 29.0578ZM34.3492 31.1125L26.4038 23.2027C28.981 20.9462 32.0095 19.9961 35.4656 20.3643C35.2043 21.1481 35.0737 22.0032 35.0737 22.9296C35.0737 23.7847 35.2637 24.7467 35.6556 25.8274C36.0475 26.8963 36.4989 27.7514 37.0927 28.3809L34.3492 31.1125Z" fill="white"/>
</svg>
