<svg width="67" height="68" viewBox="0 0 67 68" fill="none" xmlns="http://www.w3.org/2000/svg">
<rect x="1.90024" y="2.70493" width="62.7078" height="62.7078" rx="31.3539" fill="#2D77AF"/>
<rect x="1.90024" y="2.70493" width="62.7078" height="62.7078" rx="31.3539" stroke="white" stroke-width="3.80048"/>
<path d="M32.6605 38.4665L21.8921 27.7432L25.9206 23.7147L36.6213 34.5057L32.6605 38.4665ZM41.0928 43.7563L35.9538 38.6174L36.7947 37.7765L41.9337 42.9155L41.0928 43.7563ZM40.9788 28.2706C40.0714 28.2706 39.2955 27.9499 38.651 27.3086C38.0065 26.6672 37.6846 25.8933 37.6854 24.9867C37.6862 24.0801 38.0069 23.3042 38.6474 22.6589C39.288 22.0136 40.0623 21.6918 40.9705 21.6934C41.8786 21.6949 42.6542 22.0156 43.2971 22.6554C43.94 23.2951 44.2618 24.0695 44.2626 24.9784C44.2634 25.8873 43.9428 26.6629 43.3006 27.305C42.6585 27.9471 41.8846 28.269 40.9788 28.2706Z" fill="white"/>
</svg>
