<svg width="67" height="67" viewBox="0 0 67 67" fill="none" xmlns="http://www.w3.org/2000/svg">
<rect x="1.90024" y="2.21567" width="62.7078" height="62.7078" rx="31.3539" fill="#2D77AF"/>
<rect x="1.90024" y="2.21567" width="62.7078" height="62.7078" rx="31.3539" stroke="white" stroke-width="3.80048"/>
<path d="M26.1449 28.2528C26.0617 27.6744 25.8824 26.9868 25.6674 26.1649L25.0261 23.6994L25.0142 23.6554C25.8613 22.8385 26.8251 22.1521 27.8741 21.6186L29.8123 23.0889C30.4774 23.5925 31.0356 24.0165 31.5308 24.3086C31.7898 24.463 32.0498 24.5913 32.3218 24.6839V28.273C32.1761 28.3411 32.0372 28.4266 31.905 28.5295L29.6104 30.3336C29.5264 30.4006 29.4471 30.4732 29.3729 30.5509L26.1912 29.172C26.2076 28.8648 26.1928 28.5567 26.1449 28.2528ZM23.8064 30.0782C23.456 30.3799 22.9632 30.716 22.2209 31.2196L21.3848 31.7884C21.4648 29.4516 22.2356 27.191 23.5997 25.292L23.9323 26.5663C24.1615 27.4488 24.3135 28.039 24.3812 28.5082C24.4465 28.9547 24.4192 29.1994 24.3456 29.3965C24.2743 29.5925 24.1389 29.792 23.8064 30.0782ZM25.2981 38.0141C26.1235 38.0141 26.8183 38.0141 27.3871 38.0806C27.6864 38.1162 27.9727 38.172 28.2458 38.2635L29.9263 36.064C29.8655 35.9434 29.815 35.8178 29.7755 35.6887L28.8717 32.6875C28.8292 32.5405 28.8009 32.3898 28.7874 32.2374L25.5487 30.8359C25.3741 31.051 25.1797 31.249 24.9679 31.4274C24.5308 31.8039 23.9513 32.197 23.2624 32.6661L21.4905 33.8692C21.6923 35.3259 22.1657 36.7319 22.886 38.0141H25.2981ZM33.0071 29.9298C33.0657 29.8826 33.1385 29.8566 33.2137 29.8561C33.2858 29.8561 33.3551 29.8807 33.4216 29.9298L35.7161 31.7326C35.7795 31.7817 35.8234 31.8474 35.8479 31.9298C35.872 32.0099 35.872 32.0954 35.8479 32.1756L34.9477 35.1756C34.9257 35.252 34.881 35.32 34.8194 35.3704C34.7599 35.4195 34.6852 35.4463 34.608 35.4464H31.8206C31.7433 35.446 31.6686 35.4187 31.6092 35.3692C31.5479 35.3191 31.5032 35.2516 31.481 35.1756L30.5795 32.1756C30.5555 32.0954 30.5555 32.0099 30.5795 31.9298C30.6024 31.8519 30.6489 31.783 30.7126 31.7326L33.0071 29.9298ZM34.8883 24.3454C35.3895 24.064 35.9572 23.6519 36.6318 23.1637L38.6983 21.6649C39.7213 22.1965 40.6615 22.8743 41.4893 23.6768L40.8408 26.1649C40.627 26.9868 40.4477 27.6744 40.3634 28.2528C40.3157 28.5552 40.2998 28.8616 40.3159 29.1673L37.0582 30.5533C36.983 30.4742 36.9024 30.4004 36.8171 30.3324L34.5225 28.5283C34.3935 28.4271 34.2532 28.341 34.1045 28.2718V24.697C34.3729 24.6115 34.6318 24.4891 34.8883 24.3454ZM32.4382 22.7742C32.0427 22.5402 31.5653 22.1804 30.8503 21.6376L29.8016 20.8419C30.9175 20.5053 32.0768 20.3349 33.2422 20.3359C34.4679 20.3359 35.6508 20.5224 36.7636 20.868L35.6282 21.691C34.9014 22.2172 34.4168 22.5675 34.0166 22.792C33.6365 23.0058 33.4145 23.058 33.2256 23.0557C33.0368 23.0533 32.8159 22.9963 32.4394 22.7742M41.5392 31.4286C41.9762 31.8039 42.5558 32.1982 43.2446 32.6661L44.9905 33.8514C44.7904 35.3143 44.3166 36.7265 43.5938 38.0141H41.3871C40.5617 38.0141 39.867 38.0141 39.2981 38.0806C38.9945 38.1126 38.6954 38.1779 38.4061 38.2754L36.5178 36.0307C36.5717 35.9204 36.617 35.806 36.6532 35.6887L37.5558 32.6875C37.5993 32.5402 37.627 32.3918 37.6389 32.2421L40.9548 30.8312C41.1259 31.0434 41.3206 31.2421 41.5392 31.4274M36.589 40.083C36.3503 40.6127 36.1306 41.2872 35.8693 42.0949L35.2803 43.9143C34.003 44.137 32.698 44.149 31.4168 43.95L30.8159 42.0949C30.5546 41.2872 30.3349 40.6127 30.0962 40.0818C29.9784 39.8185 29.8369 39.5665 29.6734 39.3288L31.3242 37.1685C31.4849 37.2081 31.6504 37.2279 31.8206 37.2279H34.608C34.7902 37.2279 34.9671 37.2053 35.1389 37.1602L36.9905 39.3597C36.8359 39.5883 36.7016 39.8299 36.589 40.0818M29.1365 42.691C28.8551 41.8241 28.6662 41.2445 28.4715 40.8169C28.2874 40.4072 28.1354 40.2231 27.975 40.1044C27.8183 39.988 27.6069 39.9001 27.1793 39.8502C26.7268 39.7968 26.1365 39.7956 25.247 39.7956H24.1104C25.4994 41.4727 27.3228 42.7357 29.3812 43.4464L29.1365 42.691ZM39.5059 39.8502C39.9584 39.7968 40.5487 39.7956 41.4382 39.7956H42.3705C41.0348 41.4087 39.2963 42.6399 37.3313 43.3644L37.5487 42.691C37.8301 41.8241 38.019 41.2445 38.2137 40.8169C38.3978 40.4072 38.5498 40.2231 38.7102 40.1044C38.867 39.988 39.0784 39.9001 39.5059 39.8502ZM42.1259 28.507C42.1947 28.0402 42.3479 27.4488 42.5772 26.5663L42.9014 25.3193C44.2491 27.2074 45.0119 29.45 45.095 31.7682L44.2874 31.2207C43.5451 30.716 43.0522 30.3799 42.7019 30.0782C42.3693 29.792 42.2351 29.5925 42.1627 29.3977C42.089 29.1994 42.0617 28.9547 42.127 28.507" fill="white"/>
</svg>
