<svg width="67" height="67" viewBox="0 0 67 67" fill="none" xmlns="http://www.w3.org/2000/svg">
<rect x="1.90024" y="2.19418" width="62.7078" height="62.7078" rx="31.3539" fill="#2D77AF"/>
<rect x="1.90024" y="2.19418" width="62.7078" height="62.7078" rx="31.3539" stroke="white" stroke-width="3.80048"/>
<g clip-path="url(#clip0_9_436)">
<path d="M35.0356 29.5183C35.0356 29.8706 34.9311 30.215 34.7354 30.508C34.5396 30.801 34.2614 31.0293 33.9359 31.1641C33.6103 31.299 33.2521 31.3342 32.9066 31.2655C32.561 31.1968 32.2436 31.0271 31.9944 30.778C31.7453 30.5288 31.5756 30.2114 31.5069 29.8658C31.4381 29.5202 31.4734 29.162 31.6082 28.8365C31.7431 28.511 31.9714 28.2328 32.2644 28.037C32.5573 27.8413 32.9018 27.7368 33.2541 27.7368C33.7266 27.7368 34.1797 27.9245 34.5138 28.2586C34.8479 28.5927 35.0356 29.0458 35.0356 29.5183ZM45.2791 32.3608C45.2272 35.4762 43.9715 38.4506 41.775 40.6606C39.5785 42.8705 36.6119 44.1445 33.4968 44.2154H33.2463C30.2963 44.2344 27.4435 43.1612 25.2375 41.2025C25.1021 41.0868 24.9912 40.9453 24.9113 40.7862C24.8314 40.6271 24.7841 40.4536 24.7722 40.276C24.7603 40.0983 24.784 39.9201 24.8419 39.7517C24.8999 39.5834 24.9909 39.4283 25.1096 39.2956C25.2284 39.1629 25.3724 39.0553 25.5333 38.9791C25.6942 38.9029 25.8688 38.8596 26.0466 38.8518C26.2245 38.8439 26.4022 38.8718 26.5691 38.9336C26.7361 38.9954 26.889 39.0899 27.019 39.2117C27.5672 39.7012 28.1728 40.1222 28.8227 40.4654L31.221 37.1675C28.9496 36.3881 26.5547 36.7967 25.1607 37.0327C24.4216 37.1616 23.6611 37.0791 22.9668 36.7949C22.2725 36.5106 21.6725 36.0362 21.2359 35.4261C21.218 35.4027 21.2013 35.3782 21.1857 35.3537L19.6515 32.9042C19.4658 32.6078 19.4039 32.2504 19.4788 31.9088C19.5537 31.5672 19.7596 31.2685 20.0523 31.077L31.0273 23.8966V21.5016C31.0273 21.1473 31.168 20.8074 31.4186 20.5569C31.6692 20.3063 32.009 20.1655 32.3634 20.1655H33.2541C34.8477 20.1654 36.4254 20.482 37.8955 21.0969C39.3657 21.7118 40.699 22.6128 41.8178 23.7476C42.9367 24.8823 43.8189 26.2281 44.4131 27.7067C45.0073 29.1854 45.3016 30.7674 45.2791 32.3608ZM42.6068 32.3241C42.6417 29.8976 41.7319 27.5525 40.0699 25.7843C38.4078 24.016 36.1235 22.9631 33.6995 22.8478V24.6192C33.6987 24.8403 33.6431 25.0578 33.5376 25.2521C33.432 25.4465 33.2799 25.6116 33.0949 25.7326L22.6109 32.5924L23.4248 33.8929C23.5731 34.0869 23.7716 34.2366 23.9989 34.3257C24.2262 34.4148 24.4736 34.44 24.7142 34.3984C26.5213 34.0922 30.2145 33.4676 33.5815 35.2891C34.5836 35.207 35.5182 34.7513 36.2 34.0123C36.8818 33.2734 37.261 32.3052 37.2624 31.2997C37.2624 30.9454 37.4032 30.6055 37.6538 30.355C37.9043 30.1044 38.2442 29.9636 38.5985 29.9636C38.9529 29.9636 39.2927 30.1044 39.5433 30.355C39.7939 30.6055 39.9346 30.9454 39.9346 31.2997C39.9324 32.9482 39.3216 34.5379 38.2194 35.7638C37.1172 36.9896 35.6012 37.7654 33.9622 37.9424L31.4626 41.3795C32.116 41.5007 32.7801 41.5548 33.4445 41.541C35.866 41.4839 38.1716 40.4928 39.8792 38.775C41.5868 37.0573 42.5641 34.7458 42.6068 32.3241Z" fill="white"/>
</g>
<defs>
<clipPath id="clip0_9_436">
<rect width="28.5036" height="28.5036" fill="white" transform="translate(19.0024 17.939)"/>
</clipPath>
</defs>
</svg>
