<svg width="68" height="68" viewBox="0 0 68 68" fill="none" xmlns="http://www.w3.org/2000/svg">
<rect x="2.76962" y="2.68344" width="62.7078" height="62.7078" rx="31.3539" fill="#2D77AF"/>
<rect x="2.76962" y="2.68344" width="62.7078" height="62.7078" rx="31.3539" stroke="white" stroke-width="3.80048"/>
<g clip-path="url(#clip0_9_467)">
<path d="M45.5534 21.771C42.5031 18.7212 36.9235 19.354 33.0929 23.186C30.8478 25.4306 29.7099 28.2725 29.758 30.8574C29.5772 33.6259 29.081 36.2976 27.7712 37.8466L27.3183 37.3932L26.6195 38.0916L26.8132 38.2853L22.115 42.9835L21.9213 42.7898L21.2234 43.4876L23.7754 46.0409L24.4741 45.343L24.2804 45.1498L28.979 40.4516L29.1728 40.6449L29.8702 39.947L29.4796 39.5542C31.0277 38.2452 33.6959 37.7495 36.4617 37.5674C39.0475 37.6177 41.8921 36.4802 44.1389 34.2333C47.9722 30.4014 48.6046 24.8218 45.5534 21.771ZM46.0799 26.7463L45.4394 26.1067L45.9364 25.6106C46.0166 25.9799 46.0644 26.3585 46.0799 26.7463ZM45.7293 24.8891L44.9758 25.6431L43.5622 24.229L44.6836 23.1071C45.143 23.6288 45.4979 24.2337 45.7293 24.8891ZM32.7206 31.3113L34.494 29.5369L35.909 30.9514L34.1346 32.7249L32.7206 31.3113ZM33.6714 33.1907L32.5478 34.3131C32.0883 33.791 31.7333 33.1857 31.5021 32.5298L32.2561 31.7767L33.6714 33.1907ZM39.4443 24.588L41.2169 22.8145L42.6309 24.2295L40.857 26.0034L39.4443 24.588ZM42.2711 28.346L40.4963 30.1239L39.0804 28.7103L40.857 26.9329L42.2711 28.346ZM40.3925 26.4679L38.6159 28.2445L37.2019 26.8304L38.9785 25.0534L40.3925 26.4679ZM38.151 28.7103L36.3739 30.4869L34.959 29.072L36.7365 27.2954L38.151 28.7103ZM36.7365 26.3655L35.326 24.9545L37.1026 23.1775L38.5122 24.588L36.7365 26.3655ZM36.272 26.8309L34.494 28.607L33.084 27.1961L34.8597 25.4186L36.272 26.8309ZM36.3739 31.4173L37.7875 32.8304L36.0141 34.6048L34.6009 33.1898L36.3739 31.4173ZM36.8402 30.9514L38.6159 29.1748L40.03 30.5889L38.2521 32.3659L36.8402 30.9514ZM40.4963 31.0534L41.9045 32.4648L40.1275 34.2414L38.7161 32.8304L40.4963 31.0534ZM40.9599 30.5884L42.7365 28.8119L44.1478 30.2224L42.3713 31.9994L40.9599 30.5884ZM41.3224 26.4683L43.0968 24.694L44.5104 26.1071L42.7383 27.8815L41.3224 26.4683ZM44.2191 22.6422L43.0968 23.7645L41.6814 22.3496L42.4345 21.5965C43.0913 21.8265 43.6973 22.1816 44.2191 22.6422ZM41.7135 21.388L41.2173 21.8842L40.5782 21.2451C40.9663 21.2608 41.3447 21.3085 41.7135 21.388ZM39.6688 21.2656L40.7519 22.3491L38.9789 24.123L37.5671 22.7126L38.9125 21.3671C39.1661 21.3205 39.4182 21.2866 39.6688 21.2656ZM37.6392 21.7105L37.103 22.2476L36.8745 22.0191C37.1248 21.905 37.3799 21.8021 37.6392 21.7105ZM36.2559 22.33L36.6372 22.7117L34.8597 24.4891L34.2001 23.8278C34.8196 23.2439 35.5103 22.7407 36.2559 22.33ZM33.7347 24.2936L34.3956 24.9545L32.6186 26.7311L32.2369 26.349C32.6477 25.6035 33.1509 24.913 33.7347 24.2936ZM31.9256 26.968L32.1536 27.1965L31.6165 27.7336C31.7062 27.4765 31.8092 27.2213 31.9256 26.968ZM31.2731 29.0056L32.6186 27.6606L34.0295 29.0715L32.2561 30.8445L31.1712 29.7601C31.1925 29.5104 31.2265 29.2589 31.2731 29.0056ZM31.7902 31.3108L31.2941 31.807C31.2133 31.4335 31.1656 31.0536 31.1516 30.6717L31.7902 31.3108ZM29.8867 37.4395C29.3995 36.9523 30.0337 35.0639 30.4728 33.9412C30.7774 34.5642 31.1716 35.1432 31.6762 35.6478C32.1808 36.1524 32.7607 36.5475 33.3851 36.8525C32.2623 37.2912 30.3731 37.9259 29.8867 37.4395ZM33.0127 34.7785L34.1351 33.6557L35.5491 35.0702L34.7942 35.8233C34.1391 35.5921 33.5343 35.2374 33.0127 34.7785ZM35.5171 36.0308L36.0136 35.5343L36.6532 36.1743C36.271 36.16 35.8908 36.112 35.5171 36.0308ZM37.5631 36.1538L36.4782 35.0688L38.2516 33.2954L39.6634 34.7059L38.3175 36.0527C38.0678 36.0983 37.816 36.132 37.5631 36.1538ZM39.5904 35.7093L40.1271 35.1726L40.356 35.4006C40.1024 35.5161 39.8472 35.619 39.5904 35.7093ZM40.9764 35.088L40.5947 34.7059L42.3713 32.9297L43.0318 33.5902C42.4124 34.174 41.7218 34.6772 40.9764 35.088ZM43.4967 33.1253L42.8358 32.4648L44.6124 30.6878L44.9949 31.0694C44.5837 31.8148 44.0803 32.5055 43.4967 33.1253ZM45.3058 30.4508L45.0773 30.2228L45.614 29.6861C45.5231 29.9456 45.4203 30.2008 45.3058 30.4508ZM45.9578 28.4119L44.6124 29.7578L43.2023 28.346L44.9758 26.5726L46.0598 27.6575C46.0378 27.9104 46.0037 28.1622 45.9578 28.4119ZM25.6615 29.1169C26.97 29.1169 28.2005 28.6074 29.126 27.6824C30.0515 26.7574 30.5606 25.5264 30.5606 24.2179C30.5606 22.9094 30.0502 21.6789 29.1247 20.7538C28.1997 19.8288 26.9695 19.3188 25.6611 19.3188C24.3526 19.3188 23.1229 19.8283 22.1979 20.7538C21.2724 21.6789 20.7625 22.9094 20.7625 24.2179C20.7625 25.5264 21.272 26.7574 22.1974 27.6824C22.6513 28.1386 23.1912 28.5003 23.7858 28.7466C24.3804 28.9928 25.0179 29.1187 25.6615 29.1169ZM28.5479 21.3315C29.2855 22.0666 29.7118 23.0575 29.7384 24.0985C28.7033 24.0543 27.7226 23.6229 26.9905 22.8898C26.2569 22.1578 25.8255 21.1768 25.7818 20.1414C26.8224 20.1681 27.8129 20.5943 28.5479 21.3315ZM22.7751 21.331C23.4466 20.6564 24.3341 20.2397 25.282 20.1539C25.3285 21.3176 25.8116 22.4211 26.6352 23.2446C27.4587 24.068 28.5622 24.551 29.7259 24.5974C29.6401 25.5455 29.2232 26.4332 28.5484 27.1048C27.8768 27.7795 26.9891 28.1962 26.041 28.2819C25.9944 27.1184 25.5113 26.0152 24.6879 25.1919C23.8646 24.3686 22.7614 23.8855 21.598 23.8389C21.6828 22.8904 22.0997 22.0023 22.7751 21.331ZM24.333 25.546C25.0662 26.2782 25.4976 27.2591 25.5417 28.2944C24.5008 28.268 23.5099 27.842 22.7746 27.1048C22.0374 26.3695 21.6114 25.3786 21.585 24.3377C22.6201 24.3818 23.6008 24.8131 24.333 25.546Z" fill="white"/>
</g>
<defs>
<clipPath id="clip0_9_467">
<rect width="28.5036" height="28.5036" fill="white" transform="translate(19.8718 18.4282)"/>
</clipPath>
</defs>
</svg>
