<svg width="67" height="68" viewBox="0 0 67 68" fill="none" xmlns="http://www.w3.org/2000/svg">
<rect x="1.90024" y="2.72641" width="62.7078" height="62.7078" rx="31.3539" fill="#2D77AF"/>
<rect x="1.90024" y="2.72641" width="62.7078" height="62.7078" rx="31.3539" stroke="white" stroke-width="3.80048"/>
<g clip-path="url(#clip0_9_454)">
<path d="M33.2542 18.4712C41.1248 18.4712 47.506 24.8524 47.506 32.723C47.506 40.5935 41.1248 46.9748 33.2542 46.9748C25.3837 46.9748 19.0024 40.5935 19.0024 32.723C19.0024 24.8524 25.3837 18.4712 33.2542 18.4712ZM33.2542 42.0175C34.4873 42.0372 35.712 41.8114 36.8569 41.3531C38.0019 40.8949 39.0442 40.2134 39.9231 39.3484C40.8021 38.4833 41.5002 37.4521 41.9767 36.3146C42.4531 35.1771 42.6985 33.9562 42.6985 32.723C42.6985 31.4897 42.4531 30.2688 41.9767 29.1314C41.5002 27.9939 40.8021 26.9626 39.9231 26.0976C39.0442 25.2325 38.0019 24.5511 36.8569 24.0928C35.712 23.6346 34.4873 23.4087 33.2542 23.4284C30.8149 23.4674 28.4887 24.4638 26.7774 26.2026C25.0662 27.9415 24.1071 30.2833 24.1071 32.723C24.1071 35.1626 25.0662 37.5045 26.7774 39.2433C28.4887 40.9821 30.8149 41.9785 33.2542 42.0175ZM33.2542 37.2847C32.0447 37.2847 30.8847 36.8042 30.0294 35.949C29.1741 35.0937 28.6937 33.9337 28.6937 32.7242C28.6937 31.5146 29.1741 30.3546 30.0294 29.4994C30.8847 28.6441 32.0447 28.1636 33.2542 28.1636C34.4638 28.1636 35.6238 28.6441 36.479 29.4994C37.3343 30.3546 37.8148 31.5146 37.8148 32.7242C37.8148 33.9337 37.3343 35.0937 36.479 35.949C35.6238 36.8042 34.4638 37.2847 33.2542 37.2847Z" fill="white"/>
</g>
<defs>
<clipPath id="clip0_9_454">
<rect width="28.5036" height="28.5036" fill="white" transform="translate(19.0024 18.4712)"/>
</clipPath>
</defs>
</svg>
