<svg width="68" height="67" viewBox="0 0 68 67" fill="none" xmlns="http://www.w3.org/2000/svg">
<rect x="2.76962" y="2.21567" width="62.7078" height="62.7078" rx="31.3539" fill="#2D77AF"/>
<rect x="2.76962" y="2.21567" width="62.7078" height="62.7078" rx="31.3539" stroke="white" stroke-width="3.80048"/>
<path d="M41.2494 36.9627C42.5559 36.9627 43.6247 35.8938 43.6247 34.5874V33.5423C43.6247 31.0482 41.7839 29.3499 40.0262 28.9342L36.8195 28.1384C35.7863 27.8772 34.9549 27.1765 34.5036 26.2738H31.1544C30.8219 26.2738 30.5606 26.0126 30.5606 25.68C30.5606 25.3475 30.8219 25.0862 31.1544 25.0862H34.1473L34.1236 23.8985H31.1544C30.8219 23.8985 30.5606 23.6373 30.5606 23.3047C30.5606 22.9722 30.8219 22.7109 31.1544 22.7109H34.1236V21.5232C34.1236 20.2168 33.0547 19.1479 31.7483 19.1479H26.9977C25.6913 19.1479 24.6224 20.2168 24.6224 21.5232V34.5874C24.6224 35.8938 25.6913 36.9627 26.9977 36.9627H41.2494ZM25.81 45.2762C23.8385 45.2762 22.2471 43.6848 22.2471 41.7133C22.2471 39.7418 23.8385 38.1503 25.81 38.1503C27.7815 38.1503 29.373 39.7418 29.373 41.7133C29.373 43.6848 27.7815 45.2762 25.81 45.2762ZM42.4371 45.2762C40.4656 45.2762 38.8741 43.6848 38.8741 41.7133C38.8741 39.7418 40.4656 38.1503 42.4371 38.1503C44.4086 38.1503 46 39.7418 46 41.7133C46 43.6848 44.4086 45.2762 42.4371 45.2762ZM34.1236 45.2762C32.1521 45.2762 30.5606 43.6848 30.5606 41.7133C30.5606 39.7418 32.1521 38.1503 34.1236 38.1503C36.0951 38.1503 37.6865 39.7418 37.6865 41.7133C37.6865 43.6848 36.0951 45.2762 34.1236 45.2762Z" fill="white"/>
</svg>
