<svg width="68" height="68" viewBox="0 0 68 68" fill="none" xmlns="http://www.w3.org/2000/svg">
<rect x="2.76962" y="2.70493" width="62.7078" height="62.7078" rx="31.3539" fill="#2D77AF"/>
<rect x="2.76962" y="2.70493" width="62.7078" height="62.7078" rx="31.3539" stroke="white" stroke-width="3.80048"/>
<path d="M41.8434 37.4519C43.5061 37.4519 44.8125 38.7584 44.8125 40.4211C44.8125 42.0838 43.5061 43.3902 41.8434 43.3902C40.1807 43.3902 38.8742 42.0838 38.8742 40.4211C38.8742 38.7584 40.1807 37.4519 41.8434 37.4519ZM32.3422 19.6372C23.4348 19.6372 23.4348 22.8439 23.4348 30.0885C23.4348 34.1265 27.4728 38.5208 30.5607 39.946V45.7655H34.1237V39.946C37.2115 38.5208 41.2495 34.1265 41.2495 30.0885C41.2495 22.7251 41.2495 19.6372 32.3422 19.6372ZM38.1617 23.4377C38.5179 23.9127 38.6367 24.6253 38.7555 25.5755H37.6866V22.9626C37.9241 23.0814 38.0429 23.3189 38.1617 23.4377ZM38.8742 30.0885V30.326H37.6866V26.7631H38.8742V30.0885ZM36.4989 35.0766H32.936V31.5137H36.4989V35.0766ZM28.1854 35.0766V31.5137H31.7484V35.0766H28.1854ZM25.8101 30.0885V26.7631H26.9978V30.326H25.8101V30.0885ZM28.1854 26.7631H31.7484V30.326H28.1854V26.7631ZM32.936 22.0125C34.5987 22.0125 35.7864 22.25 36.4989 22.3688V25.5755H32.936V22.0125ZM31.7484 25.5755H28.1854V22.4876C28.898 22.25 30.0856 22.0125 31.7484 22.0125V25.5755ZM32.936 30.326V26.7631H36.4989V30.326H32.936ZM26.9978 22.9626V25.5755H25.9289C26.0476 24.6253 26.1664 23.9127 26.5227 23.4377L26.9978 22.9626ZM26.0476 31.5137H26.9978V33.5327C26.6415 32.8201 26.2852 32.2263 26.0476 31.5137ZM29.3731 36.2643H31.7484V37.8082L31.5108 37.6895C30.7982 37.4519 30.0856 36.8581 29.3731 36.2643ZM33.1735 37.8082H32.936V36.2643H35.3113C34.5987 36.8581 33.8861 37.4519 33.1735 37.8082ZM37.6866 33.5327V31.5137H38.6367C38.3992 32.1075 38.0429 32.8201 37.6866 33.5327Z" fill="white"/>
</svg>
