<svg width="67" height="68" viewBox="0 0 67 68" fill="none" xmlns="http://www.w3.org/2000/svg">
<rect x="1.90024" y="2.68344" width="62.7078" height="62.7078" rx="31.3539" fill="#2D77AF"/>
<rect x="1.90024" y="2.68344" width="62.7078" height="62.7078" rx="31.3539" stroke="white" stroke-width="3.80048"/>
<path d="M21.3777 36.2431C23.3611 35.3524 25.3326 34.4617 27.3159 34.0697V24.3667C27.3159 23.4217 27.6913 22.5155 28.3595 21.8473C29.0277 21.1791 29.9339 20.8037 30.8789 20.8037C32.4347 20.8037 33.753 21.7895 34.2399 23.179H30.8789C30.5639 23.179 30.2618 23.3041 30.0391 23.5269C29.8164 23.7496 29.6912 24.0517 29.6912 24.3667V25.5543H35.6295V24.3667C35.6295 23.4217 36.0048 22.5155 36.673 21.8473C37.3412 21.1791 38.2475 20.8037 39.1924 20.8037C40.7482 20.8037 42.0665 21.7895 42.5535 23.179H39.1924C38.8774 23.179 38.5753 23.3041 38.3526 23.5269C38.1299 23.7496 38.0048 24.0517 38.0048 24.3667V36.1719C40.3801 35.7918 42.7554 33.8678 45.1307 33.8678V36.2431C42.4941 36.2431 39.8575 38.6184 37.209 38.6184C34.5725 38.6184 31.9359 36.2431 29.2993 36.2431C26.6508 36.2431 24.0143 37.4308 21.3777 38.6184V36.2431ZM35.6295 27.9296H29.6912V30.3049H35.6295V27.9296ZM35.6295 32.6802H29.6912V33.8678C31.6746 34.0579 33.6461 35.4237 35.6295 35.9937V32.6802ZM21.3777 40.9937C24.0143 39.8061 26.6508 38.6184 29.2993 38.6184C31.9359 38.6184 34.5725 40.9937 37.209 40.9937C39.8575 40.9937 42.4941 38.6184 45.1307 38.6184V40.9937C42.4941 40.9937 39.8575 43.369 37.209 43.369C34.5725 43.369 31.9359 40.9937 29.2993 40.9937C26.6508 40.9937 24.0143 42.1814 21.3777 43.369V40.9937Z" fill="white"/>
</svg>
