<svg width="68" height="67" viewBox="0 0 68 67" fill="none" xmlns="http://www.w3.org/2000/svg">
<rect x="2.76962" y="2.19418" width="62.7078" height="62.7078" rx="31.3539" fill="#2D77AF"/>
<rect x="2.76962" y="2.19418" width="62.7078" height="62.7078" rx="31.3539" stroke="white" stroke-width="3.80048"/>
<path d="M41.8434 34.5662C43.5061 34.5662 44.8125 35.8726 44.8125 37.5354C44.8125 39.1981 43.5061 40.5045 41.8434 40.5045C40.1807 40.5045 38.8742 39.1981 38.8742 37.5354C38.8742 35.8726 40.1807 34.5662 41.8434 34.5662ZM28.1854 35.7539C28.1854 35.7539 29.3731 36.9415 29.3731 38.1292V42.2859C29.3731 43.2361 30.2044 44.0674 31.1545 44.0674C32.1046 44.0674 32.936 43.2361 32.936 42.2859V38.1292C32.936 36.9415 34.1237 35.7539 34.1237 35.7539H28.1854ZM29.3731 34.5662H32.936C32.936 34.5662 38.8742 34.5662 38.8742 28.628C38.8742 22.6897 34.1237 20.3145 31.1545 20.3145C28.1854 20.3145 23.4348 22.6897 23.4348 28.628C23.4348 34.5662 29.3731 34.5662 29.3731 34.5662Z" fill="white"/>
</svg>
